<?xml version="1.0" encoding="utf-8"?>
<!-- Generator: Adobe Illustrator 26.0.1, SVG Export Plug-In . SVG Version: 6.00 Build 0)  -->
<svg version="1.1" id="图层_1" xmlns="http://www.w3.org/2000/svg" xmlns:xlink="http://www.w3.org/1999/xlink" x="0px" y="0px"
	 viewBox="0 0 576 432" style="enable-background:new 0 0 576 432;" xml:space="preserve">
<style type="text/css">
	.st0{font-family:'ArialMT';}
	.st1{font-size:12px;}
	.st2{fill:none;stroke:#000000;stroke-width:0.75;stroke-linecap:round;stroke-linejoin:round;stroke-miterlimit:10;}
	.st3{letter-spacing:19;}
</style>
<text transform="matrix(1 0 0 1 388.0508 73.2383)" class="st0 st1">|</text>
<polyline class="st2" points="251.5,116.4 251.5,70.1 527.7,70.1 527.7,116.4 "/>
<polyline class="st2" points="131.2,162.6 131.2,116.4 371.7,116.4 371.7,162.6 "/>
<polyline class="st2" points="77.1,208.8 77.1,162.6 185.4,162.6 185.4,208.8 "/>
<polyline class="st2" points="185.4,208.8 185.4,162.6 77.1,162.6 77.1,208.8 "/>
<polyline class="st2" points="155.1,255 155.1,208.8 215.7,208.8 215.7,255 "/>
<polyline class="st2" points="129.1,301.2 129.1,255 181.1,255 181.1,301.2 "/>
<polyline class="st2" points="111.7,347.5 111.7,301.2 146.4,301.2 146.4,347.5 "/>
<polyline class="st2" points="146.4,347.5 146.4,301.2 111.7,301.2 111.7,347.5 "/>
<polyline class="st2" points="181.1,301.2 181.1,255 129.1,255 129.1,301.2 "/>
<polyline class="st2" points="215.7,255 215.7,208.8 155.1,208.8 155.1,255 "/>
<polyline class="st2" points="371.7,162.6 371.7,116.4 131.2,116.4 131.2,162.6 "/>
<polyline class="st2" points="315.4,208.8 315.4,162.6 428.1,162.6 428.1,208.8 "/>
<polyline class="st2" points="276.4,255 276.4,208.8 354.4,208.8 354.4,255 "/>
<polyline class="st2" points="250.4,301.2 250.4,255 302.4,255 302.4,301.2 "/>
<polyline class="st2" points="302.4,301.2 302.4,255 250.4,255 250.4,301.2 "/>
<polyline class="st2" points="285.1,347.5 285.1,301.2 319.7,301.2 319.7,347.5 "/>
<polyline class="st2" points="319.7,347.5 319.7,301.2 285.1,301.2 285.1,347.5 "/>
<polyline class="st2" points="354.4,255 354.4,208.8 276.4,208.8 276.4,255 "/>
<polyline class="st2" points="428.1,208.8 428.1,162.6 315.4,162.6 315.4,208.8 "/>
<polyline class="st2" points="389.1,255 389.1,208.8 467.1,208.8 467.1,255 "/>
<polyline class="st2" points="467.1,255 467.1,208.8 389.1,208.8 389.1,255 "/>
<polyline class="st2" points="441.1,301.2 441.1,255 493.1,255 493.1,301.2 "/>
<polyline class="st2" points="423.7,347.5 423.7,301.2 458.4,301.2 458.4,347.5 "/>
<polyline class="st2" points="458.4,347.5 458.4,301.2 423.7,301.2 423.7,347.5 "/>
<polyline class="st2" points="493.1,301.2 493.1,255 441.1,255 441.1,301.2 "/>
<polyline class="st2" points="527.7,116.4 527.7,70.1 251.5,70.1 251.5,116.4 "/>
<text transform="matrix(1 0 0 1 362.9219 60.1289)" class="st0 st1">x6 in {1 2}</text>
<text transform="matrix(1 0 0 1 224.7969 106.3516)" class="st0 st1">x2 in {1 2}</text>
<text transform="matrix(1 0 0 1 104.5469 152.5742)" class="st0 st1">x3 in {1 2}</text>
<text transform="matrix(1 0 0 1 158.7109 198.7969)" class="st0 st1">x1 in {1 2}</text>
<text transform="matrix(1 0 0 1 128.3789 245.0195)" class="st0 st1">x8 in {1 2}</text>
<text transform="matrix(1 0 0 1 107.3789 291.2422)" class="st0 st1">x2 in {1}</text>
<text transform="matrix(1 0 0 1 345.0469 152.5742)" class="st0 st1">x8 in {1 2}</text>
<text transform="matrix(1 0 0 1 288.7109 198.7969)" class="st0 st1">x9 in {1 3}</text>
<text transform="matrix(1 0 0 1 249.7109 245.0195)" class="st0 st1">x4 in {1 3}</text>
<text transform="matrix(1 0 0 1 275.7109 291.2422)" class="st0 st1">x7 in {1 3}</text>
<text transform="matrix(1 0 0 1 401.3789 198.7969)" class="st0 st1">x5 in {1 2}</text>
<text transform="matrix(1 0 0 1 440.3789 245.0195)" class="st0 st1">x9 in {1 3}</text>
<text transform="matrix(1 0 0 1 414.3789 291.2422)" class="st0 st1">x1 in {1 3}</text>
<text transform="matrix(1 0 0 1 69.3945 226.2031)" class="st0 st1">C1</text>
<text transform="matrix(1 0 0 1 104.0625 364.8711)"><tspan x="0" y="0" class="st0 st1">C</tspan><tspan x="8.7" y="0" class="st0 st1 st3">2</tspan><tspan x="34.6" y="0" class="st0 st1">C1</tspan></text>
<text transform="matrix(1 0 0 1 173.3945 318.6484)" class="st0 st1">C1</text>
<text transform="matrix(1 0 0 1 208.0625 272.4258)" class="st0 st1">C1</text>
<text transform="matrix(1 0 0 1 242.7266 318.6484)" class="st0 st1">C1</text>
<text transform="matrix(1 0 0 1 277.3945 364.8672)"><tspan x="0" y="0" class="st0 st1">C</tspan><tspan x="8.7" y="0" class="st0 st1 st3">3</tspan><tspan x="34.7" y="0" class="st0 st1">C1</tspan></text>
<text transform="matrix(1 0 0 1 346.7266 272.4258)"><tspan x="0" y="0" class="st0 st1">C</tspan><tspan x="8.7" y="0" class="st0 st1 st3">1</tspan><tspan x="34.7" y="0" class="st0 st1">C1</tspan></text>
<text transform="matrix(1 0 0 1 416.0625 364.8711)"><tspan x="0" y="0" class="st0 st1">C</tspan><tspan x="8.7" y="0" class="st0 st1 st3">4</tspan><tspan x="34.6" y="0" class="st0 st1">C1</tspan></text>
<text transform="matrix(1 0 0 1 485.3945 318.6484)" class="st0 st1">C1</text>
<text transform="matrix(1 0 0 1 520.0625 133.7578)" class="st0 st1">C1</text>
</svg>
